#!OML:ASF E:\CV Data\Top Level 1\Subject 1\Session 1\player.ASF
:FULLY-SPECIFIED
:DEGREES
623
root 1.1034 16.8162 4.299 -177.827 -142.421 177.61
lowerback 11.5673 0.168613 -5.0788
upperback -0.135354 -0.254024 3.32472
thorax -6.61968 0.0986617 6.47185
lowerneck -20.8274 1.2574 -5.96171
upperneck 19.8366 1.96015 6.87221
head 9.56824 1.25619 3.67169
rclavicle -8.46823e-014 1.98785e-014
rhumerus 319.693 37.7779 259.353
rradius 89.6115
rwrist -4.25739
rhand -24.9114 16.7932
rfingers 7.12502
rthumb 1.59713 -13.1806
lclavicle -8.46823e-014 1.98785e-014
lhumerus -36.4372 -37.3429 109.259
lradius 87.0283
lwrist 32.1342
lhand -22.2426 33.0462
lfingers 7.12502
lthumb 4.17448 62.985
rfemur -38.2356 8.89444 9.03272
rtibia 40.8671
rfoot -12.4144 -0.623743
rtoes -3.30414
lfemur -1.20023 -0.0185385 -19.3563
ltibia 34.5675
lfoot -26.5009 -1.37644
ltoes -6.21698
624
root 1.16891 16.8354 4.22897 -177.707 -141.924 177.437
lowerback 11.601 0.234156 -4.99523
upperback -0.0958536 -0.160383 3.27078
thorax -6.61036 0.139318 6.34899
lowerneck -20.7789 1.32357 -6.00948
upperneck 19.7964 2.06029 6.89617
head 9.53672 1.30171 3.69895
rclavicle -2.74323e-014 -9.93923e-015
rhumerus 319.398 37.536 258.838
rradius 89.528
rwrist -4.49085
rhand -25.1306 16.9416
rfingers 7.12502
rthumb 1.38548 -13.0337
lclavicle -2.74323e-014 -9.93923e-015
lhumerus -36.7534 -37.3405 109.224
lradius 87.105
lwrist 32.4195
lhand -22.3503 33.0416
lfingers 7.12502
lthumb 4.07055 62.9825
rfemur -38.0426 8.34301 9.66344
rtibia 41.2118
rfoot -13.0451 -1.23556
rtoes -2.90026
lfemur -1.58826 0.138531 -19.3405
ltibia 34.7182
lfoot -26.2594 -1.0458
ltoes -6.05775
625
root 1.23293 16.8543 4.16136 -177.578 -141.435 177.251
lowerback 11.6144 0.299523 -4.88144
upperback -0.0637704 -0.0619105 3.21895
thorax -6.59774 0.181494 6.20989
lowerneck -20.722 1.38758 -6.05382
upperneck 19.7784 2.15942 6.90156
head 9.51179 1.34452 3.71937
rclavicle -2.6985e-014 1.94809e-014
rhumerus 319.093 37.308 258.331
rradius 89.4294
rwrist -4.68871
rhand -25.3162 17.0544
rfingers 7.12502
rthumb 1.20616 -12.9219
lclavicle -2.6985e-014 1.94809e-014
lhumerus -37.0796 -37.3144 109.208
lradius 87.1569
lwrist 32.6431
lhand -22.5238 33.0304
lfingers 7.12502
lthumb 3.90292 62.9744
rfemur -37.8061 7.77407 10.3111
rtibia 41.6248
rfoot -13.5936 -1.93548
rtoes -2.31583
lfemur -1.97716 0.237186 -19.3259
ltibia 34.8907
lfoot -25.994 -0.66716
ltoes -5.94214
626
root 1.29534 16.8727 4.09544 -177.436 -140.945 177.057
lowerback 11.6062 0.368407 -4.75518
upperback -0.0421206 0.0441535 3.1725
thorax -6.58455 0.227401 6.06799
lowerneck -20.6533 1.4486 -6.10619
upperneck 19.7875 2.25802 6.89535
head 9.49426 1.38465 3.73748
rclavicle -6.92765e-014 3.81667e-014
rhumerus 318.779 37.0992 257.839
rradius 89.3189
rwrist -4.8563
rhand -25.4567 17.1222
rfingers 7.12502
rthumb 1.07052 -12.8549
lclavicle -6.92765e-014 3.81667e-014
lhumerus -37.4108 -37.2577 109.213
lradius 87.1783
lwrist 32.7649
lhand -22.7179 33.0113
lfingers 7.12502
lthumb 3.71553 62.9587
rfemur -37.5406 7.20553 10.9594
rtibia 42.1048
rfoot -14.0955 -2.73661
rtoes -1.62998
lfemur -2.38176 0.331629 -19.3046
ltibia 35.0904
lfoot -25.7172 -0.279291
ltoes -5.88253
627
root 1.35612 16.8906 4.02987 -177.279 -140.455 176.867
lowerback 11.5822 0.449542 -4.63565
upperback -0.0350802 0.16635 3.12665
thorax -6.57969 0.28221 5.928
lowerneck -20.5937 1.50182 -6.14601
upperneck 19.8259 2.34468 6.87464
head 9.48992 1.41823 3.74796
rclavicle 3.45637e-014 1.59028e-014
rhumerus 318.465 36.8862 257.369
rradius 89.2077
rwrist -5.01611
rhand -25.5495 17.1495
rfingers 7.12502
rthumb 0.980854 -12.828
lclavicle 3.45637e-014 1.59028e-014
lhumerus -37.7521 -37.1838 109.243
lradius 87.1734
lwrist 32.7713
lhand -22.8994 32.974
lfingers 7.12502
lthumb 3.54024 62.9243
rfemur -37.261 6.65328 11.5885
rtibia 42.6478
rfoot -14.5699 -3.64032
rtoes -0.882579
lfemur -2.81865 0.448683 -19.2738
ltibia 35.3186
lfoot -25.435 0.078443
ltoes -5.85276
628
root 1.41501 16.9082 3.96414 -177.116 -139.961 176.691
lowerback 11.5467 0.539896 -4.54369
upperback -0.0422304 0.297907 3.08551
thorax -6.58434 0.343342 5.80757
lowerneck -20.5334 1.55202 -6.18864
upperneck 19.8943 2.42842 6.84769
head 9.49625 1.44908 3.75728
rclavicle 4.40557e-014 -1.47101e-014
rhumerus 318.14 36.6908 256.916
rradius 89.109
rwrist -5.21128
rhand -25.6042 17.1367
rfingers 7.12502
rthumb 0.92798 -12.8411
lclavicle 4.40557e-014 -1.47101e-014
lhumerus -38.0949 -37.0612 109.288
lradius 87.145
lwrist 32.658
lhand -23.0013 32.9231
lfingers 7.12502
lthumb 3.44186 62.8751
rfemur -36.9672 6.1354 12.1826
rtibia 43.2478
rfoot -15.0269 -4.61954
rtoes -0.0685612
lfemur -3.28241 0.605708 -19.2367
ltibia 35.5716
lfoot -25.1533 0.391938
ltoes -5.86377
629
root 1.47182 16.9254 3.89803 -176.956 -139.459 176.531
lowerback 11.5022 0.641932 -4.48061
upperback -0.0579701 0.441539 3.04438
thorax -6.59435 0.411776 5.70184
lowerneck -20.4807 1.59704 -6.22603
upperneck 19.9936 2.50422 6.81441
head 9.51553 1.47551 3.76366
rclavicle -5.28767e-014 -2.18663e-014
rhumerus 317.816 36.5033 256.478
rradius 89.0263
rwrist -5.47657
rhand -25.6181 17.1124
rfingers 7.12502
rthumb 0.914635 -12.8654
lclavicle -5.28767e-014 -2.18663e-014
lhumerus -38.433 -36.8952 109.33
lradius 87.1056
lwrist 32.4495
lhand -23.0035 32.8621
lfingers 7.12502
lthumb 3.43975 62.8141
rfemur -36.6547 5.66617 12.7349
rtibia 43.8966
rfoot -15.4655 -5.64045
rtoes 0.814466
lfemur -3.75811 0.778082 -19.1986
ltibia 35.8409
lfoot -24.8721 0.670482
ltoes -5.8815
630
root 1.52656 16.9424 3.83151 -176.805 -138.969 176.388
lowerback 11.4564 0.751182 -4.44167
upperback -0.0785115 0.591446 3.00014
thorax -6.60923 0.484314 5.60574
lowerneck -20.4552 1.63683 -6.24799
upperneck 20.1202 2.56819 6.78307
head 9.55053 1.49772 3.76823
rclavicle 8.41356e-014 -2.78299e-014
rhumerus 317.497 36.314 256.056
rradius 88.966
rwrist -5.83668
rhand -25.6075 17.097
rfingers 7.12502
rthumb 0.924787 -12.8807
lclavicle 8.41356e-014 -2.78299e-014
lhumerus -38.7654 -36.7042 109.37
lradius 87.0677
lwrist 32.2259
lhand -22.9413 32.7796
lfingers 7.12502
lthumb 3.49975 62.7306
rfemur -36.3129 5.23071 13.2438
rtibia 44.5843
rfoot -15.8811 -6.67249
rtoes 1.75622
lfemur -4.23648 0.948175 -19.1571
ltibia 36.1182
lfoot -24.596 0.906024
ltoes -5.91367
